<svg xmlns="http://www.w3.org/2000/svg" width="47.039" height="48"><path data-name="Caminho 37" d="M23.999 19.636v9.295h12.916a11.066 11.066 0 0 1-4.822 7.222l7.789 6.044c4.538-4.189 7.156-10.342 7.156-17.651a27.582 27.582 0 0 0-.436-4.909Z" fill="#4285f4"/><path data-name="Caminho 38" d="m10.549 28.568-1.757 1.345-6.218 4.844a24 24 0 0 0 21.425 13.244 22.906 22.906 0 0 0 15.884-5.8l-7.789-6.044A14.3 14.3 0 0 1 24 38.47a14.328 14.328 0 0 1-13.44-9.884Z" fill="#34a853"/><path data-name="Caminho 39" d="M2.577 13.244A23.7 23.7 0 0 0 .003 24a23.7 23.7 0 0 0 2.574 10.754c0 .022 7.986-6.2 7.986-6.2a14.385 14.385 0 0 1-.764-4.56 14.385 14.385 0 0 1 .764-4.56Z" fill="#fbbc05"/><path data-name="Caminho 40" d="M23.999 9.556a13.1 13.1 0 0 1 9.186 3.578l6.873-6.873A23.025 23.025 0 0 0 24-.001 23.957 23.957 0 0 0 2.575 13.243l7.985 6.2a14.328 14.328 0 0 1 13.439-9.887Z" fill="#ea4335"/></svg>