<svg id="lion" xmlns="http://www.w3.org/2000/svg" width="374.592" height="449.999" viewBox="0 0 374.592 449.999">
    <path id="Caminho_106" data-name="Caminho 106" d="M303.676,95.783q-2.646,60.88-.061,121.423v.5q-1.77,2.168-2.543-.259-18.99-47.161-40.363-93.188l40.52-29.247a1.8,1.8,0,0,1,1.789-.318A1.034,1.034,0,0,1,303.676,95.783Z" transform="translate(-115.104 -94.567)" fill="#246bfd"/>
    <path id="Caminho_107" data-name="Caminho 107" d="M282.984,95.18l41.2,28.472q-19.166,40.758-36.844,82.193c-1.49,3.479-5.168,5.826-4.414,10.757Q280.34,156.06,282.984,95.18Z" transform="translate(-94.413 -93.963)" fill="#7ba6fd"/>
    <path id="Caminho_108" data-name="Caminho 108" d="M284.674,109.5q21.375,46.028,40.363,93.189-26.862-18.133-51.754-37.657a.974.974,0,0,0-.994-.119l-.537.258a21.37,21.37,0,0,0-3.777-4.1q-15.949-11.61-31.516-23.739l5.41-17.795a1.718,1.718,0,0,1,1.211-1.193Z" transform="translate(-139.07 -79.811)" fill="#7ba6fd"/>
    <path id="Caminho_109" data-name="Caminho 109" d="M323.6,109.5l40.063,8.391a4.1,4.1,0,0,1,3.064,3.022l4.512,17-35.629,27.14-53.266,37.9v-.5c-.756-4.932,2.924-7.277,4.414-10.757Q304.429,150.259,323.6,109.5Z" transform="translate(-93.83 -79.811)" fill="#bdd2fe"/>
    <path id="Caminho_110" data-name="Caminho 110" d="M283.076,125.881q15.568,12.129,31.514,23.74a21.324,21.324,0,0,1,3.777,4.095l13.879,21.036a1.4,1.4,0,0,1,.158,1.188,1.359,1.359,0,0,1-.814.859q-13.9,5.249-28.691,10.08c-9.086,2.963-22.525,20.718-29.127,28.193Q234,258.179,194.58,301.741a6.08,6.08,0,0,1-5.289,2.088l62.033-133.551a1.017,1.017,0,0,1,.768-.57.927.927,0,0,1,.861.332l13.918,17.337a527.322,527.322,0,0,0,60.861-10.4q4.614-1.074.717-3.758-35.373-24.316-70.465-47.559a9.9,9.9,0,0,0-5.646-1.689,2.192,2.192,0,0,1-.5-2.207,1.215,1.215,0,0,1,1.453-.637A228.284,228.284,0,0,0,283.076,125.881Z" transform="translate(-185.687 -68.357)" fill="#246bfd"/>
    <path id="Caminho_111" data-name="Caminho 111" d="M382.324,123.09q-24.179,14.593-72.85,47.28-4.553,3.042-5.389,6.581a2.417,2.417,0,0,1-1.549-.993,1.8,1.8,0,0,1,.256-1.771l12.885-20.8,35.629-27.14,29.883-4.911a2.225,2.225,0,0,1,1.732.339Q383.971,122.514,382.324,123.09Z" transform="translate(-73.901 -68.151)" fill="#7ba6fd"/>
    <path id="Caminho_112" data-name="Caminho 112" d="M221,122.539a9.919,9.919,0,0,1,5.648,1.69q35.092,23.243,70.463,47.559,3.9,2.684-.715,3.758a527.743,527.743,0,0,1-60.861,10.4q.855-4.075-.377-6.063a7.579,7.579,0,0,1-.895-1.75q-6.343-26.165-12.863-52.291A13.432,13.432,0,0,1,221,122.539Z" transform="translate(-154.347 -66.924)" fill="#7ba6fd"/>
    <path id="Caminho_113" data-name="Caminho 113" d="M381.488,122.2a632.439,632.439,0,0,1-15.25,61.378,1.016,1.016,0,0,0,.338,1.232,1.527,1.527,0,0,0,.793.2l-1.291,1.353a2.091,2.091,0,0,1-1.809.378q-25.134-4.137-50.045-9.4-2.625-.557-3.021,1.551l-7.953-2.823q.835-3.541,5.387-6.581Q357.311,136.792,381.488,122.2Z" transform="translate(-73.064 -67.261)" fill="#bdd2fe"/>
    <path id="Caminho_114" data-name="Caminho 114" d="M329.662,175.188q.773,2.426,2.545.259l53.266-37.9-12.885,20.8a1.8,1.8,0,0,0-.258,1.77,2.421,2.421,0,0,0,1.551.994l7.953,2.824c7.773,2.862,22.168,6.123,27.676,12.127q10.5,11.414,21.293,22.787l-10.537,19.842a5.551,5.551,0,0,0-.357,4.513l9.781,26.364-36.145,40.6L381.674,272q-2.247-3.439-1.291.537l13.3,55.313-18.65,24.674a3.172,3.172,0,0,1-3.4,1.193l-32.449-9.424a1.263,1.263,0,0,1-.914-1.253l1.055-18.093a2.023,2.023,0,0,1,.873-1.552l25.748-17.774a1.231,1.231,0,0,0,.418-1.49l-7.416-17.021q-1.192-2.744-1.432.16l-.637,7.813a3.008,3.008,0,0,1-.9,1.947,2.32,2.32,0,0,1-1.844.657,108.444,108.444,0,0,0-21.354-.04l-25.41-.437a1.215,1.215,0,0,1-1.232-.954l-1.252-8.092c-.119-.752-.439-1.321-.795-1.412-.875-.239-7.158,15.448-7.992,17.3a1.24,1.24,0,0,0,.436,1.53l25.529,17.7a2.1,2.1,0,0,1,.955,1.57l1.094,18.033a1.252,1.252,0,0,1-.936,1.271l-33.859,9.723a1.448,1.448,0,0,1-1.531-.575L269.08,328.044l13.24-56.684q.577-2.446-.814-.379l-12.744,19.146-36.027-40.44,10.082-27.557a2.25,2.25,0,0,0-.1-1.829l-10.937-21.274c6.6-7.476,20.043-25.23,29.129-28.193Q275.7,166,289.6,160.755a1.363,1.363,0,0,0,.814-.86,1.394,1.394,0,0,0-.16-1.189L276.377,137.67l.537-.258a.969.969,0,0,1,.992.119Q302.8,157.056,329.662,175.188ZM288.883,238.2a186.689,186.689,0,0,1,1.232,22.129q0,2.128.855-.277c3.24-8.986,11.055-24.952,10-34.218a212.912,212.912,0,0,0-3.58-21.513q-.2-.935-.457.02l-3.8,13.957a.957.957,0,0,1-1.234.676l-15.547-5.487a3.007,3.007,0,0,0-1.869-.118l-20.062,6.342q-1.014.319-.178.994l21.393,17.755a2.341,2.341,0,0,0,1.791.518l10.357-1.551a1,1,0,0,1,.723.17A.892.892,0,0,1,288.883,238.2Zm84.461-1.133a27.869,27.869,0,0,0,13.084,1.312,3.48,3.48,0,0,0,1.729-.814l19.6-16.284q1.729-1.43-.477-2.126l-17.119-5.409a3.317,3.317,0,0,0-1.889-.179l-17.119,5.487a1.122,1.122,0,0,1-1.371-.478A30.509,30.509,0,0,1,366.5,207c-.061-.736-1.512-5.845-2.246-.875-1.193,7.854-4.633,20.2-2.088,27.736.875,2.605,8.928,27.159,9.643,27.12a.7.7,0,0,0,.557-.756l.039-22.487a.717.717,0,0,1,.936-.676Z" transform="translate(-143.695 -52.311)" fill="#fff"/>
    <path id="Caminho_115" data-name="Caminho 115" d="M440.381,280.872l-1.053-.577a7.321,7.321,0,0,1-1.633-1.073l-81.477-88.776q-10.8-11.373-21.295-22.784c-5.506-6-19.9-9.266-27.676-12.128q.4-2.109,3.021-1.552,24.914,5.269,50.045,9.405a2.094,2.094,0,0,0,1.809-.379l1.293-1.352,14.018-15.607a.661.661,0,0,1,.611-.21.7.7,0,0,1,.52.409q30.741,64.578,60.445,129.315A29.4,29.4,0,0,1,440.381,280.872Z" transform="translate(-69.112 -43.908)" fill="#7ba6fd"/>
    <path id="Caminho_116" data-name="Caminho 116" d="M275.561,168.36,286.5,189.633a2.247,2.247,0,0,1,.1,1.831l-10.08,27.556c-17.682,46.87-56.982,154.273-56.982,154.273L187.621,266.559a2.817,2.817,0,0,1,.039-1.908l3.42-7.536a6.073,6.073,0,0,0,5.289-2.088Q235.794,211.465,275.561,168.36Z" transform="translate(-187.476 -21.645)" fill="#194ab1"/>
    <path id="Caminho_117" data-name="Caminho 117" d="M337.455,168.27l81.48,88.775a7.1,7.1,0,0,0,1.629,1.073l1.055.577a9.072,9.072,0,0,1,2.881,9.861c-10.021,34.543-21.324,70.016-31.332,104.611,0,0-32.82-90.235-56.828-154.178l-9.781-26.364a5.554,5.554,0,0,1,.359-4.514Z" transform="translate(-50.348 -21.732)" fill="#246bfd"/>
    <path id="Caminho_118" data-name="Caminho 118" d="M276.809,204.354l-10.359,1.552a2.337,2.337,0,0,1-1.789-.518l-21.395-17.755q-.832-.677.18-.994l20.063-6.342a3,3,0,0,1,1.869.119l15.547,5.486a.952.952,0,0,0,1.232-.676l3.8-13.956q.258-.957.457-.021a213.337,213.337,0,0,1,3.578,21.514c1.055,9.264-6.76,25.229-10,34.216q-.855,2.407-.854.279A186.68,186.68,0,0,0,277.9,205.13a.874.874,0,0,0-.371-.6A1,1,0,0,0,276.809,204.354Z" transform="translate(-132.715 -19.245)" fill="#0e2a65"/>
    <path id="Caminho_119" data-name="Caminho 119" d="M308.988,203.936a.717.717,0,0,0-.936.676l-.039,22.487a.7.7,0,0,1-.559.755c-.713.04-8.768-24.515-9.643-27.119-2.543-7.536.895-19.883,2.09-27.736.734-4.972,2.186.139,2.246.875a30.484,30.484,0,0,0,3.281,11.571,1.121,1.121,0,0,0,1.371.478l17.119-5.487a3.309,3.309,0,0,1,1.889.179l17.119,5.408q2.2.694.479,2.127L323.8,204.433a3.511,3.511,0,0,1-1.73.814A27.866,27.866,0,0,1,308.988,203.936Z" transform="translate(-79.341 -19.183)" fill="#0e2a65"/>
    <path id="Caminho_120" data-name="Caminho 120" d="M257.967,193.84l36.027,40.441L241.4,299.355l-40.432,48.775S240.283,240.709,257.967,193.84Z" transform="translate(-168.927 3.537)" fill="#246bfd"/>
    <path id="Caminho_121" data-name="Caminho 121" d="M349.287,193.779c24.006,63.941,56.838,154.188,56.838,154.188l-39.779-47.559-53.205-66.029Z" transform="translate(-63.292 3.479)" fill="#7ba6fd"/>
    <path id="Caminho_122" data-name="Caminho 122" d="M287.762,262.084,259.848,379.311,194.412,338l93.033-113.83,12.742-19.146q1.395-2.068.816.377Z" transform="translate(-162.378 13.65)" fill="#194ab1"/>
    <path id="Caminho_123" data-name="Caminho 123" d="M319.822,224.025l53.205,66.031,39.789,47.549c.1.227-64.781,41.326-64.781,41.326L319.963,261.7l-13.3-55.312q-.958-3.979,1.291-.537Z" transform="translate(-69.975 13.832)" fill="#246bfd"/>
    <path id="Caminho_124" data-name="Caminho 124" d="M344.354,254.061l28.074,117.229c-4.811,1.252-90.766,57.215-90.766,57.215l1.137-111.2,41.752-13.959a1.914,1.914,0,0,0,1.123-.937,1.8,1.8,0,0,0,.109-1.428l-3.719-10.678a1.8,1.8,0,0,0-1.271-1.152l-37.977-8.809a311.585,311.585,0,0,1,.639-56.486,108.443,108.443,0,0,1,21.354.041,2.326,2.326,0,0,0,1.844-.658,3.017,3.017,0,0,0,.9-1.947l.635-7.812q.24-2.9,1.432-.16l7.416,17.02a1.234,1.234,0,0,1-.418,1.492l-25.746,17.775a2.011,2.011,0,0,0-.875,1.549l-1.055,18.094a1.255,1.255,0,0,0,.914,1.252l32.449,9.424a3.168,3.168,0,0,0,3.4-1.193Z" transform="translate(-94.365 21.472)" fill="#194ab1"/>
    <path id="Caminho_125" data-name="Caminho 125" d="M328.119,223.377a311.762,311.762,0,0,0-.637,56.486l-39.627,8.75a1.84,1.84,0,0,0-1.371,1.152l-3.957,11.59a1.059,1.059,0,0,0,.7,1.314c15.111,5.09,28.83,10.461,44.26,14.133l-1.154,111.24L236.5,371.006l27.916-117.229,18.709,25.252a1.445,1.445,0,0,0,1.529.576l33.859-9.723a1.256,1.256,0,0,0,.936-1.273l-1.094-18.033a2.1,2.1,0,0,0-.955-1.57l-25.527-17.7a1.242,1.242,0,0,1-.437-1.531c.834-1.85,7.117-17.535,7.992-17.3.355.092.676.66.8,1.412l1.25,8.092a1.218,1.218,0,0,0,1.234.955Z" transform="translate(-139.031 21.956)" fill="#0e2a65"/>
    <path id="Caminho_126" data-name="Caminho 126" d="M304.629,246.369l37.973,8.809a1.8,1.8,0,0,1,1.275,1.154l3.719,10.676a1.8,1.8,0,0,1-.109,1.426,1.92,1.92,0,0,1-1.125.939l-40.184,12.943q-23.139-5.5-45.809-13.143a1.052,1.052,0,0,1-.7-1.311l3.955-11.592A1.856,1.856,0,0,1,265,255.117Z" transform="translate(-116.176 55.45)" fill="#fcfcfc"/>
  </svg>
  