<svg xmlns="http://www.w3.org/2000/svg" width="24" height="28.831" viewBox="0 0 24 28.831">
  <path id="Interseção_2" data-name="Interseção 2" d="M-7887.755-368.37l-4.191-2.646h0l-2.044-6.837a.176.176,0,0,1,0-.122l.219-.483,3.975-8.556a.065.065,0,0,1,.049-.037.06.06,0,0,1,.055.021l.892,1.111a.541.541,0,0,0-.024-.388.473.473,0,0,1-.058-.112q-.406-1.676-.824-3.35a.888.888,0,0,1-.025-.211.14.14,0,0,1-.032-.141.078.078,0,0,1,.093-.041,14.631,14.631,0,0,0,1.908.3l.347-1.14a.111.111,0,0,1,.078-.077l2.665-.567q1.37,2.949,2.586,5.971-1.721-1.162-3.316-2.413a.062.062,0,0,0-.063-.008l-.035.017.889,1.348a.089.089,0,0,1,.01.076.087.087,0,0,1-.052.055q-.891.336-1.838.646c-.582.19-1.443,1.327-1.866,1.806q-2.547,2.762-5.074,5.553l0,0,0,0q2.526-2.791,5.074-5.553l.7,1.363a.142.142,0,0,1,.006.117l-.646,1.766-.026.068.026-.068,2.308,2.591.816-1.227q.089-.132.052.024l-.848,3.632h0l1.2,1.618a.092.092,0,0,0,.1.037l2.169-.623a.08.08,0,0,0,.06-.082l-.07-1.155a.136.136,0,0,0-.062-.1l-1.635-1.134a.079.079,0,0,1-.028-.1,8.483,8.483,0,0,1,.512-1.108c.022.006.043.042.051.09l.081.518a.077.077,0,0,0,.079.061l1.628.028a6.954,6.954,0,0,1,1.368,0,.148.148,0,0,0,.118-.042.191.191,0,0,0,.058-.125l.041-.5c.01-.124.041-.127.092-.01l.475,1.09a.079.079,0,0,1-.027.1l-1.649,1.139a.129.129,0,0,0-.056.1l-.067,1.159a.08.08,0,0,0,.058.08l2.079.6a.2.2,0,0,0,.218-.076l1.195-1.581,1.8,7.511-1.8-7.511-.852-3.544q-.061-.255.083-.034l.76,1.164,2.316-2.6c.2.544.418,1.118.637,1.7-.218-.586-.433-1.16-.637-1.7l-.626-1.689a.356.356,0,0,1,.022-.289l.675-1.271q-.691-.729-1.364-1.46a5.191,5.191,0,0,0-1.773-.777l-.509-.181a.154.154,0,0,1-.1-.064.115.115,0,0,1,.016-.113l.826-1.332,2.283-1.739,1.915-.315a.141.141,0,0,1,.111.022q.067.053-.038.09-.4,2.036-.977,3.932a.065.065,0,0,0,.021.079.1.1,0,0,0,.051.013l-.083.087.083-.087.9-1a.042.042,0,0,1,.039-.013.046.046,0,0,1,.034.026q1.969,4.137,3.872,8.285a1.828,1.828,0,0,1,.088.34l-.067-.037.067.037a.581.581,0,0,1,.185.632c-.642,2.213-1.366,4.485-2.007,6.7h0c.006.015-4.15,2.648-4.15,2.648-.308.08-5.8,3.659-5.815,3.666h0Zm5.829-5.839-2.539.56a.117.117,0,0,0-.088.074l-.254.743a.068.068,0,0,0,.045.084c.968.326,1.847.67,2.835.906h0l2.674-.894a.124.124,0,0,0,.072-.06.117.117,0,0,0,.007-.091l-.238-.684a.115.115,0,0,0-.082-.074l-2.433-.564a19.971,19.971,0,0,1,.032-3.534A19.971,19.971,0,0,0-7881.926-374.21Zm7.342.132.083.1-.083-.1-3.409-4.23Zm-19.142-4.381a.38.38,0,0,0,.265-.1A.38.38,0,0,1-7893.726-378.459Zm0,0h0Zm18.419-7.431h0Zm-3.435-.506a.119.119,0,0,1,.077-.1A.118.118,0,0,0-7878.743-386.4Zm-6-.3q0-.057-.114-.136Q-7884.739-386.75-7884.739-386.693Zm-4.983-3.291h0Zm5.1,9.764a12.074,12.074,0,0,0-.079-1.418.056.056,0,0,0-.024-.039.064.064,0,0,0-.046-.011l-.664.1a.149.149,0,0,1-.114-.033l-1.371-1.138q-.053-.043.012-.064l1.285-.406a.193.193,0,0,1,.12.008l1,.352a.06.06,0,0,0,.049,0,.06.06,0,0,0,.03-.039l.244-.894q.016-.061.029,0a13.7,13.7,0,0,1,.229,1.378,6.515,6.515,0,0,1-.641,2.192q-.029.082-.042.082C-7884.615-380.156-7884.619-380.177-7884.619-380.22Zm5.234.042c-.046,0-.562-1.571-.618-1.737a4.509,4.509,0,0,1,.134-1.777c.047-.318.14.009.144.056a1.955,1.955,0,0,0,.21.741.072.072,0,0,0,.088.031l1.1-.352a.212.212,0,0,1,.121.011l1.1.347q.141.045.031.136l-1.256,1.043a.223.223,0,0,1-.111.052,1.784,1.784,0,0,1-.838-.084.046.046,0,0,0-.041.007.046.046,0,0,0-.019.037l0,1.441a.045.045,0,0,1-.036.048Zm-2.7-5.5q-1.217-3.022-2.586-5.971l2.6-1.874a.114.114,0,0,1,.114-.02.066.066,0,0,1,.042.07q-.021.488-.037.975.015-.487.037-.975l2.639,1.824,2.567.538a.263.263,0,0,1,.2.194l.289,1.089-2.283,1.739-3.413,2.428c-.036.044-.067.066-.093.066S-7882.067-385.62-7882.085-385.675Zm.158-.136h0a.511.511,0,0,1,.017-.094A.509.509,0,0,0-7881.927-385.81Zm.017-.095a0,0,0,0,0,0,0A0,0,0,0,1-7881.91-385.905Zm0-.005h0Zm-.176.236Z" transform="translate(7894 393.547)" fill="#fff"/>
</svg>
