<svg xmlns="http://www.w3.org/2000/svg" width="602.68" height="724"><path data-name="Caminho 106" d="M303.389 1.957q-4.255 97.949-.1 195.355v.8q-2.847 3.487-4.094-.416-30.544-75.877-64.934-149.931L299.451.71a2.891 2.891 0 0 1 2.879-.512 1.663 1.663 0 0 1 1.059 1.759Z" fill="#246bfd"/><path data-name="Caminho 107" d="m303.39 1.957 66.28 45.808q-30.837 65.577-59.28 132.241c-2.4 5.6-8.317 9.373-7.1 17.306q-4.156-97.406.1-195.355Z" fill="#7ba6fd"/><path data-name="Caminho 108" d="M234.261 47.765q34.388 74.054 64.938 149.931-43.217-29.174-83.267-60.587a1.567 1.567 0 0 0-1.6-.192l-.864.416a34.379 34.379 0 0 0-6.078-6.59q-25.655-18.681-50.7-38.194l8.7-28.63A2.766 2.766 0 0 1 167.341 62Z" fill="#7ba6fd"/><path data-name="Caminho 109" d="m369.669 47.765 64.458 13.5a6.6 6.6 0 0 1 4.926 4.862l7.262 27.35-57.324 43.664-85.7 60.97v-.8c-1.216-7.933 4.7-11.708 7.1-17.306q28.441-66.663 59.278-132.24Z" fill="#bdd2fe"/><path data-name="Caminho 110" d="M156.689 92.551q25.047 19.513 50.7 38.195a34.387 34.387 0 0 1 6.078 6.59l22.328 33.844a2.256 2.256 0 0 1 .256 1.911 2.188 2.188 0 0 1-1.311 1.384q-22.36 8.445-46.16 16.218c-14.618 4.766-36.243 33.332-46.863 45.36Q77.74 305.402 14.308 375.489a9.776 9.776 0 0 1-8.509 3.359l99.8-214.868a1.644 1.644 0 0 1 1.235-.919 1.5 1.5 0 0 1 1.388.535l22.392 27.894a848.967 848.967 0 0 0 97.917-16.73q7.421-1.728 1.151-6.046-56.908-39.122-113.368-76.517a15.938 15.938 0 0 0-9.085-2.719 3.518 3.518 0 0 1-.8-3.551 1.953 1.953 0 0 1 2.335-1.024 367.414 367.414 0 0 0 47.925 7.648Z" fill="#246bfd"/><path data-name="Caminho 111" d="M496.217 88.39q-38.9 23.48-117.207 76.069-7.325 4.894-8.669 10.588a3.9 3.9 0 0 1-2.5-1.6 2.905 2.905 0 0 1 .416-2.847l20.728-33.46 57.324-43.665 48.079-7.9a3.57 3.57 0 0 1 2.783.544q1.701 1.344-.954 2.271Z" fill="#7ba6fd"/><path data-name="Caminho 112" d="M107.234 89.478a15.94 15.94 0 0 1 9.085 2.719q56.46 37.395 113.368 76.517 6.27 4.319-1.151 6.046a849 849 0 0 1-97.918 16.73q1.376-6.558-.608-9.757a12.31 12.31 0 0 1-1.44-2.815q-10.2-42.1-20.7-84.13a21.807 21.807 0 0 1-.636-5.31Z" fill="#7ba6fd"/><path data-name="Caminho 113" d="M496.217 88.391a1017.027 1017.027 0 0 1-24.536 98.749 1.636 1.636 0 0 0 .543 1.983 2.478 2.478 0 0 0 1.28.32l-2.079 2.175a3.371 3.371 0 0 1-2.911.608q-40.434-6.654-80.515-15.131-4.223-.9-4.863 2.5l-12.795-4.543q1.343-5.694 8.669-10.588 78.308-52.593 117.207-76.073Z" fill="#bdd2fe"/><path data-name="Caminho 114" d="M299.198 197.696q1.247 3.9 4.095.416l85.7-60.97-20.729 33.46a2.9 2.9 0 0 0-.415 2.847 3.9 3.9 0 0 0 2.494 1.6l12.8 4.542c12.508 4.606 35.667 9.852 44.528 19.513q16.89 18.362 34.26 36.659l-16.954 31.925a8.935 8.935 0 0 0-.576 7.262l15.737 42.416-58.16 65.321-19.097-29.233q-3.615-5.534-2.08.864l21.4 88.992-30.005 39.7a5.109 5.109 0 0 1-5.47 1.919l-52.206-15.163a2.032 2.032 0 0 1-1.471-2.015l1.7-29.11a3.248 3.248 0 0 1 1.408-2.495l41.425-28.6a1.982 1.982 0 0 0 .672-2.4l-11.936-27.385q-1.92-4.414-2.3.256l-1.024 12.572a4.844 4.844 0 0 1-1.448 3.134 3.73 3.73 0 0 1-2.966 1.057 174.415 174.415 0 0 0-34.356-.064l-40.881-.7a1.953 1.953 0 0 1-1.983-1.535l-2.022-13.027c-.193-1.21-.708-2.125-1.28-2.271-1.408-.384-11.516 24.855-12.859 27.83a2 2 0 0 0 .7 2.463l41.073 28.47a3.388 3.388 0 0 1 1.535 2.527l1.76 29.014a2.017 2.017 0 0 1-1.5 2.047l-54.476 15.643a2.329 2.329 0 0 1-2.463-.928l-30.1-40.626 21.3-91.2q.928-3.935-1.312-.608l-20.5 30.8-57.963-65.061 16.218-44.336a3.6 3.6 0 0 0-.16-2.943l-17.593-34.221c10.62-12.028 32.245-40.593 46.863-45.36q23.8-7.773 46.16-16.218a2.189 2.189 0 0 0 1.311-1.384 2.257 2.257 0 0 0-.256-1.911l-22.327-33.847.864-.416a1.567 1.567 0 0 1 1.6.192q40.049 31.413 83.265 60.586ZM233.59 299.068a301.06 301.06 0 0 1 1.983 35.6q0 3.423 1.376-.448c5.214-14.459 17.786-40.146 16.09-55.052a342.508 342.508 0 0 0-5.758-34.612q-.32-1.5-.736.032l-6.11 22.456a1.535 1.535 0 0 1-1.983 1.087l-25.014-8.825a4.828 4.828 0 0 0-3.007-.192l-32.277 10.2q-1.631.512-.288 1.6l34.42 28.566a3.756 3.756 0 0 0 2.879.832l16.666-2.5a1.621 1.621 0 0 1 1.162.275 1.426 1.426 0 0 1 .597.981Zm135.888-1.824a44.844 44.844 0 0 0 21.049 2.111 5.618 5.618 0 0 0 2.783-1.312l31.541-26.2q2.783-2.3-.768-3.423l-27.543-8.7a5.339 5.339 0 0 0-3.039-.288l-27.542 8.829a1.807 1.807 0 0 1-2.207-.768 49.068 49.068 0 0 1-5.278-18.617c-.1-1.184-2.431-9.4-3.615-1.408-1.92 12.636-7.454 32.5-3.359 44.624 1.407 4.191 14.363 43.7 15.514 43.633a1.13 1.13 0 0 0 .9-1.216l.064-36.179a1.151 1.151 0 0 1 1.5-1.088Z" fill="#fff"/><path data-name="Caminho 115" d="m597.333 381.249-1.7-.928a11.564 11.564 0 0 1-2.623-1.727l-131.09-142.83q-17.369-18.3-34.26-36.659c-8.86-9.661-32.021-14.907-44.528-19.513q.641-3.391 4.863-2.5 40.082 8.477 80.516 15.131a3.371 3.371 0 0 0 2.911-.608l2.079-2.175 22.552-25.111a1.068 1.068 0 0 1 .984-.337 1.141 1.141 0 0 1 .839.657q49.455 103.9 97.246 208.054c1.124 2.466 1.604 5.857 2.211 8.546Z" fill="#7ba6fd"/><path data-name="Caminho 116" d="m141.723 236.051 17.594 34.228a3.6 3.6 0 0 1 .16 2.943l-16.218 44.337c-28.449 75.408-91.68 248.208-91.68 248.208L.233 394.043a4.548 4.548 0 0 1 .064-3.071l5.5-12.124a9.775 9.775 0 0 0 8.509-3.359q63.435-70.087 127.417-139.438Z" fill="#194ab1"/><path data-name="Caminho 117" d="m461.925 235.763 131.09 142.83a11.528 11.528 0 0 0 2.624 1.727l1.7.928q7.294 6.653 4.638 15.866c-16.123 55.575-34.309 112.647-50.41 168.307 0 0-52.807-145.18-91.429-248.055l-15.739-42.417a8.936 8.936 0 0 1 .576-7.261Z" fill="#246bfd"/><path data-name="Caminho 118" d="m231.83 297.82-16.662 2.495a3.757 3.757 0 0 1-2.879-.831l-34.421-28.566q-1.344-1.087.288-1.6l32.277-10.2a4.828 4.828 0 0 1 3.007.192l25.015 8.829a1.535 1.535 0 0 0 1.983-1.088l6.11-22.456q.416-1.535.736-.032a342.6 342.6 0 0 1 5.758 34.612c1.7 14.907-10.876 40.594-16.091 55.053q-1.376 3.87-1.375.448a301.087 301.087 0 0 0-1.983-35.6 1.427 1.427 0 0 0-.6-.972 1.622 1.622 0 0 0-1.162-.275Z" fill="#0e2a65"/><path data-name="Caminho 119" d="M369.478 297.245a1.152 1.152 0 0 0-1.5 1.088l-.064 36.179a1.13 1.13 0 0 1-.9 1.215c-1.152.064-14.107-39.442-15.515-43.632-4.094-12.124 1.44-31.989 3.359-44.624 1.184-8 3.519.224 3.615 1.408a49.054 49.054 0 0 0 5.278 18.618 1.807 1.807 0 0 0 2.207.767l27.542-8.829a5.342 5.342 0 0 1 3.039.288l27.543 8.7q3.55 1.12.767 3.423l-31.541 26.2a5.617 5.617 0 0 1-2.784 1.311 44.841 44.841 0 0 1-21.046-2.112Z" fill="#0e2a65"/><path data-name="Caminho 120" d="m143.253 317.558 57.964 65.065-84.61 104.7-65.05 78.476s63.248-172.833 91.696-248.241Z" fill="#246bfd"/><path data-name="Caminho 121" d="M460.138 317.366c38.621 102.876 91.444 248.071 91.444 248.071l-64-76.515-85.604-106.236Z" fill="#7ba6fd"/><path data-name="Caminho 122" d="m201.727 443.625-44.91 188.605L51.54 565.761 201.217 382.62l20.51-30.8q2.239-3.327 1.311.608Z" fill="#194ab1"/><path data-name="Caminho 123" d="m401.979 382.687 85.6 106.235 64.013 76.5c.16.365-104.223 66.487-104.223 66.487l-45.167-188.603-21.4-88.992q-1.534-6.4 2.079-.864Z" fill="#246bfd"/><path data-name="Caminho 124" d="M402.202 443.305 447.37 631.91c-7.741 2.015-146.03 92.052-146.03 92.052l1.831-178.9 67.17-22.457a3.092 3.092 0 0 0 1.81-1.51 2.9 2.9 0 0 0 .174-2.3l-5.982-17.178a2.9 2.9 0 0 0-2.047-1.855l-61.1-14.171a501.593 501.593 0 0 1 1.023-90.88 174.394 174.394 0 0 1 34.356.064 3.732 3.732 0 0 0 2.967-1.057 4.847 4.847 0 0 0 1.448-3.134l1.024-12.572q.384-4.671 2.3-.256l11.932 27.382a1.983 1.983 0 0 1-.672 2.4l-41.425 28.6a3.246 3.246 0 0 0-1.407 2.5l-1.7 29.11a2.032 2.032 0 0 0 1.471 2.015l52.214 15.163a5.107 5.107 0 0 0 5.47-1.919Z" fill="#194ab1"/><path data-name="Caminho 125" d="M304.217 394.714a501.634 501.634 0 0 0-1.024 90.88l-63.754 14.076a2.966 2.966 0 0 0-2.207 1.855l-6.366 18.649a1.7 1.7 0 0 0 1.12 2.111c24.311 8.189 46.383 16.831 71.207 22.738l-1.853 178.978-144.523-91.772 44.912-188.6 30.1 40.626a2.328 2.328 0 0 0 2.463.928l54.477-15.642a2.017 2.017 0 0 0 1.5-2.047l-1.752-29.02a3.387 3.387 0 0 0-1.536-2.527l-41.073-28.47a2 2 0 0 1-.7-2.463c1.343-2.975 11.452-28.214 12.86-27.83.571.147 1.087 1.061 1.28 2.271l2.015 13.019a1.953 1.953 0 0 0 1.983 1.536Z" fill="#0e2a65"/><path data-name="Caminho 126" d="m303.197 485.594 61.1 14.171a2.9 2.9 0 0 1 2.047 1.856l5.982 17.178a2.9 2.9 0 0 1-.174 2.3 3.092 3.092 0 0 1-1.81 1.51l-64.649 20.825q-37.235-8.861-73.7-21.145a1.7 1.7 0 0 1-1.12-2.111l6.366-18.649a2.968 2.968 0 0 1 2.207-1.855Z" fill="#fcfcfc"/></svg>